<svg width="128" height="128" viewBox="0 0 128 128" fill="none" xmlns="http://www.w3.org/2000/svg">
<g clip-path="url(#clip0_804_106)">
<path d="M12.7998 0H25.5998H38.3999H51.1999V12.8H64H76.8L76.7998 0H89.5999H102.4H115.2L115.2 12.8H128V25.6001V38.4001V44.8V51.1999V64V76.8V89.5999V102.4V115.2H115.2L115.2 128H102.4V115.2V102.4V89.5999V76.8V64V51.1999L102.4 38.4001H89.5999H76.8L70.3999 38.3999V51.1999V64H57.5999V51.1999V38.3999L51.1999 38.4001H38.3999H25.5998V51.1999V64V76.8L38.3999 76.7999H51.1999H64H76.8V89.5999V102.4V115.2V128H64H51.2002V115.2V102.4L51.1999 89.5999H38.3999H25.5998V102.4V115.2V128H12.7998V115.2L0 115.2V102.4V89.5999V76.8V64V51.1999V38.4001V25.6001V12.8H12.7998V0Z" fill="url(#paint0_linear_804_106)"/>
</g>
<defs>
<linearGradient id="paint0_linear_804_106" x1="64" y1="128" x2="64" y2="0" gradientUnits="userSpaceOnUse">
<stop stop-color="#FC4C05"/>
<stop offset="1" stop-color="#FD8404"/>
</linearGradient>
<clipPath id="clip0_804_106">
<rect width="128" height="128" fill="white"/>
</clipPath>
</defs>
</svg>
